<svg width="159" height="20" viewBox="0 0 159 20" fill="none" xmlns="http://www.w3.org/2000/svg">
<mask id="mask0_2008_214" style="mask-type:alpha" maskUnits="userSpaceOnUse" x="0" y="0" width="20" height="20">
<path d="M0 4.41057C0 1.97468 1.97468 0 4.41057 0H15.5894C18.0253 0 20 1.97468 20 4.41057V15.5894C20 18.0253 18.0253 20 15.5894 20H4.41057C1.97468 20 0 18.0253 0 15.5894V4.41057Z" fill="black"/>
</mask>
<g mask="url(#mask0_2008_214)">
<path d="M0 4.41057C0 1.97468 1.97468 0 4.41057 0H15.5894C18.0253 0 20 1.97468 20 4.41057V15.5894C20 18.0253 18.0253 20 15.5894 20H4.41057C1.97468 20 0 18.0253 0 15.5894V4.41057Z" fill="#0037FF"/>
<path d="M3.52369 -0.223771C3.53256 -0.20144 3.53771 -0.17763 3.54658 -0.155299C3.60763 -0.184563 3.48058 -0.533733 3.63062 0.0177326C3.83109 0.754517 4.15764 1.23084 4.46989 1.59374C5.02096 2.23235 5.30663 2.19211 5.95911 1.75188C6.81567 1.17454 7.54023 0.438495 8.26775 -0.290107C9.14659 -1.16932 9.98387 -2.08805 10.813 -3.01647C10.8286 -3.03131 10.8465 -3.05134 10.8764 -3.08474C10.891 -2.98282 10.8247 -2.94356 10.7882 -2.89456C9.81763 -1.59538 8.87309 -0.284985 8.04364 1.10897C7.72184 1.65483 7.41193 2.20889 7.19711 2.80705C6.94936 3.49587 7.02233 3.77715 7.59837 4.22915C8.22637 4.72515 8.93502 5.07707 9.65785 5.41042C13.7821 7.23956 19.1537 8.48162 20.6555 8.99676C20.7253 9.02072 20.7915 9.04615 20.8732 9.07832C20.7897 9.15026 20.7222 9.09954 20.6605 9.08526C19.1114 8.74404 13.725 7.2294 9.40776 6.46215C8.7185 6.40849 8.02694 6.3816 7.3461 6.54437C6.96438 6.6357 6.72145 6.84857 6.64764 7.2485C6.53917 7.84319 6.5653 8.44042 6.60408 9.03694C6.72942 10.7841 7.70239 15.8954 8.01149 17.617C8.2604 18.9919 8.54802 20.3557 8.83339 21.7248C8.86133 21.8602 8.89524 21.9889 8.91575 22.1273C8.78751 21.9455 8.76645 21.7298 8.70816 21.5289C8.44397 20.647 8.20359 19.76 7.93344 18.8848C7.3791 17.0883 6.13561 11.9035 5.43317 10.1572C5.15144 9.45895 4.87344 8.75925 4.44729 8.13135C4.04856 7.53994 3.85528 7.509 3.26015 7.90921C2.40731 8.48507 1.66719 9.19282 0.940439 9.9125C-1.11757 11.9454 -3.04051 14.1013 -4.94046 16.2826C-5.12613 16.4986 -5.31701 16.7123 -5.50121 16.932C-5.54521 16.9839 -5.58844 17.027 -5.65467 17.0447C-5.65023 17.0558 -5.64875 17.0596 -5.64727 17.0633C-5.64503 17.0581 -5.63535 17.0499 -5.63535 17.0499C-5.65085 17.0001 -5.60843 16.9875 -5.58605 16.9571C-3.28947 14.0279 -1.0085 11.0919 1.05645 7.99185C1.49601 7.33025 1.92517 6.66417 2.25332 5.9391C2.55155 5.29057 2.48765 4.94535 1.99282 4.42661C1.52767 3.93916 0.349958 3.54135 -0.24581 3.25663C-0.320096 3.2215 -0.141377 3.21365 -0.158207 3.09537C0.494503 3.19802 1.46208 3.36192 2.11891 3.29056C2.30562 3.2724 2.48717 3.23043 2.66429 3.1773C3.17928 3.02009 3.40553 2.62424 3.49815 2.13065C3.62996 1.41033 3.57211 0.700732 3.48898 -0.007441C3.4802 -0.0729049 3.47143 -0.138369 3.46266 -0.203833C3.48127 -0.211226 3.5036 -0.220099 3.52369 -0.223771Z" fill="#FFFA60"/>
</g>
<path d="M24.8691 18.1477V3.35467H29.2894V14.4494H37.3904V18.1477H24.8691Z" fill="black"/>
<path d="M50.6589 18.1477L49.9193 16.0168H43.2624L42.5228 18.1477H37.9616L43.4914 3.35467H49.6903L55.2377 18.1477H50.6589ZM44.4071 12.7236H48.7746L46.9783 7.5108H46.2034L44.4071 12.7236Z" fill="black"/>
<path d="M56.0318 18.1477V3.35467H69.0285V7.05292H60.4521V9.55364H68.6235V12.7764H60.4521V18.1477H56.0318Z" fill="black"/>
<path d="M86.3126 3.35467L80.2369 13.5161V18.1477H75.8166V13.4984L69.7586 3.35467H74.4078L77.8419 9.27187H78.2293L81.6458 3.35467H86.3126Z" fill="black"/>
<path d="M92.7006 18.6408C90.2117 18.629 88.3743 18.2005 87.1885 17.3552C86.0027 16.4981 85.4333 15.1538 85.4802 13.3223H89.4603C89.5307 14.5433 90.6108 15.1597 92.7006 15.1715C93.6751 15.1832 94.4147 15.0599 94.9196 14.8016C95.4362 14.5316 95.6945 14.1735 95.6945 13.7274C95.6945 13.0112 95.0252 12.5475 93.6868 12.3361L91.8201 12.0368C90.1177 11.7432 88.9202 11.4497 88.2275 11.1562C86.6426 10.4635 85.8501 9.24252 85.8501 7.49319C85.8501 6.02563 86.4371 4.8868 87.6111 4.07671C88.7969 3.26662 90.5052 2.86157 92.7359 2.86157C93.8042 2.86157 94.7435 2.94963 95.5536 3.12573C96.3754 3.30184 97.1033 3.58948 97.7373 3.98866C98.383 4.37609 98.8644 4.92202 99.1814 5.62645C99.5101 6.31914 99.6686 7.15858 99.6569 8.14478H95.7121C95.5007 6.93552 94.4734 6.33088 92.6302 6.33088C90.9396 6.33088 90.0942 6.78876 90.0942 7.70452C90.0942 8.3972 90.6519 8.83747 91.7673 9.02532L93.3346 9.30709C93.5107 9.33057 93.8042 9.37753 94.2152 9.44798C94.6378 9.51842 94.9548 9.57125 95.1661 9.60647C95.3775 9.64169 95.6768 9.7004 96.0643 9.78258C96.4517 9.86476 96.7511 9.94695 96.9624 10.0291C97.1855 10.0996 97.4614 10.1994 97.7901 10.3285C98.1189 10.4577 98.3713 10.5985 98.5474 10.7512C98.7352 10.8921 98.9407 11.074 99.1638 11.2971C99.3868 11.5084 99.5512 11.7374 99.6569 11.9839C99.7743 12.2305 99.8741 12.5181 99.9562 12.8468C100.038 13.1756 100.08 13.5278 100.08 13.9035C100.08 15.465 99.4573 16.6508 98.2128 17.4608C96.98 18.2592 95.1427 18.6525 92.7006 18.6408Z" fill="black"/>
<path d="M103.344 18.4294C102.722 18.4294 102.187 18.2122 101.741 17.7778C101.307 17.3434 101.09 16.821 101.09 16.2105C101.09 15.6117 101.313 15.0951 101.759 14.6607C102.205 14.2146 102.733 13.9915 103.344 13.9915C103.954 13.9915 104.477 14.2146 104.911 14.6607C105.357 15.0951 105.58 15.6117 105.58 16.2105C105.58 16.821 105.357 17.3434 104.911 17.7778C104.477 18.2122 103.954 18.4294 103.344 18.4294Z" fill="black"/>
<path d="M114.881 18.6408C112.416 18.6408 110.426 17.9129 108.911 16.457C107.396 15.0012 106.639 13.0993 106.639 10.7512C106.639 8.40308 107.396 6.50112 108.911 5.0453C110.426 3.58948 112.416 2.86157 114.881 2.86157C115.809 2.86157 116.671 2.97311 117.47 3.19618C118.28 3.4075 119.043 3.74798 119.759 4.2176C120.487 4.68722 121.092 5.34468 121.573 6.19C122.054 7.03531 122.366 8.03325 122.506 9.18382H118.28C117.81 7.51667 116.677 6.6831 114.881 6.6831C113.777 6.6831 112.856 7.05879 112.116 7.81018C111.388 8.56157 111.024 9.5419 111.024 10.7512C111.024 11.9487 111.388 12.929 112.116 13.6922C112.856 14.4435 113.777 14.8192 114.881 14.8192C116.689 14.8192 117.822 13.9739 118.28 12.2833H122.506C122.366 13.4456 122.054 14.4553 121.573 15.3123C121.103 16.1577 120.505 16.8151 119.777 17.2847C119.061 17.7544 118.298 18.0948 117.487 18.3062C116.677 18.5292 115.809 18.6408 114.881 18.6408Z" fill="black"/>
<path d="M137.759 16.4746C136.244 17.9187 134.242 18.6408 131.753 18.6408C129.264 18.6408 127.257 17.9187 125.731 16.4746C124.216 15.0188 123.459 13.111 123.459 10.7512C123.459 8.39134 124.216 6.48938 125.731 5.0453C127.257 3.58948 129.264 2.86157 131.753 2.86157C134.242 2.86157 136.244 3.58948 137.759 5.0453C139.285 6.48938 140.048 8.39134 140.048 10.7512C140.048 13.111 139.285 15.0188 137.759 16.4746ZM128.953 13.7098C129.705 14.4494 130.638 14.8192 131.753 14.8192C132.869 14.8192 133.796 14.4494 134.536 13.7098C135.287 12.9701 135.663 11.9839 135.663 10.7512C135.663 9.51842 135.287 8.53222 134.536 7.79257C133.796 7.05292 132.869 6.6831 131.753 6.6831C130.638 6.6831 129.705 7.05292 128.953 7.79257C128.214 8.53222 127.844 9.51842 127.844 10.7512C127.844 11.9839 128.214 12.9701 128.953 13.7098Z" fill="black"/>
<path d="M141.12 18.1477V3.35467H146.703L149.538 12.4418H149.855L152.691 3.35467H158.291V18.1477H154.064V10.804H153.712L151.37 18.1477H148.041L145.699 10.804H145.329V18.1477H141.12Z" fill="black"/>
</svg>
