<svg width="20" height="20" viewBox="0 0 20 20" fill="none" xmlns="http://www.w3.org/2000/svg">
<mask id="mask0_9036_629" style="mask-type:alpha" maskUnits="userSpaceOnUse" x="0" y="0" width="20" height="20">
<path d="M0 4.41057C0 1.97468 1.97468 0 4.41057 0H15.5894C18.0253 0 20 1.97468 20 4.41057V15.5894C20 18.0253 18.0253 20 15.5894 20H4.41057C1.97468 20 0 18.0253 0 15.5894V4.41057Z" fill="black"/>
</mask>
<g mask="url(#mask0_9036_629)">
<path d="M0 4.41057C0 1.97468 1.97468 0 4.41057 0H15.5894C18.0253 0 20 1.97468 20 4.41057V15.5894C20 18.0253 18.0253 20 15.5894 20H4.41057C1.97468 20 0 18.0253 0 15.5894V4.41057Z" fill="#0037FF"/>
<path d="M3.52357 -0.223992C3.53244 -0.201661 3.53759 -0.177851 3.54646 -0.15552C3.60751 -0.184784 3.48046 -0.533954 3.6305 0.0175116C3.83097 0.754296 4.15752 1.23062 4.46977 1.59352C5.02084 2.23213 5.30651 2.19189 5.95899 1.75166C6.81555 1.17432 7.54011 0.438274 8.26763 -0.290328C9.14647 -1.16954 9.98376 -2.08827 10.8129 -3.01669C10.8285 -3.03153 10.8464 -3.05156 10.8763 -3.08496C10.8909 -2.98304 10.8246 -2.94378 10.7881 -2.89478C9.81752 -1.5956 8.87297 -0.285206 8.04352 1.10875C7.72172 1.65461 7.41181 2.20867 7.19699 2.80683C6.94924 3.49565 7.02222 3.77693 7.59826 4.22893C8.22626 4.72493 8.9349 5.07685 9.65773 5.4102C13.782 7.23934 19.1536 8.4814 20.6554 8.99654C20.7252 9.0205 20.7914 9.04593 20.8731 9.0781C20.7896 9.15004 20.7221 9.09932 20.6604 9.08504C19.1113 8.74382 13.7249 7.22918 9.40764 6.46193C8.71838 6.40827 8.02682 6.38138 7.34598 6.54415C6.96426 6.63548 6.72133 6.84835 6.64752 7.24828C6.53905 7.84297 6.56518 8.4402 6.60396 9.03672C6.7293 10.7839 7.70227 15.8952 8.01137 17.6168C8.26028 18.9917 8.5479 20.3555 8.83327 21.7246C8.86121 21.86 8.89512 21.9887 8.91563 22.1271C8.78739 21.9453 8.76634 21.7296 8.70805 21.5287C8.44386 20.6468 8.20347 19.7598 7.93332 18.8846C7.37898 17.0881 6.13549 11.9033 5.43305 10.157C5.15132 9.45873 4.87332 8.75903 4.44717 8.13113C4.04844 7.53972 3.85516 7.50878 3.26003 7.90899C2.40719 8.48485 1.66707 9.1926 0.940324 9.91228C-1.11769 11.9452 -3.04063 14.1011 -4.94058 16.2824C-5.12625 16.4984 -5.31713 16.7121 -5.50133 16.9318C-5.54533 16.9837 -5.58856 17.0268 -5.65479 17.0445C-5.65035 17.0556 -5.64887 17.0594 -5.64739 17.0631C-5.64515 17.0579 -5.63547 17.0497 -5.63547 17.0497C-5.65097 16.9999 -5.60855 16.9873 -5.58617 16.9569C-3.28959 14.0277 -1.00862 11.0917 1.05633 7.99163C1.49589 7.33003 1.92505 6.66395 2.2532 5.93888C2.55143 5.29035 2.48753 4.94513 1.9927 4.42639C1.52755 3.93894 0.349843 3.54113 -0.245925 3.25641C-0.320211 3.22128 -0.141492 3.21343 -0.158322 3.09515C0.494388 3.1978 1.46196 3.3617 2.11879 3.29034C2.3055 3.27218 2.48706 3.23021 2.66418 3.17708C3.17917 3.01987 3.40541 2.62402 3.49803 2.13043C3.62984 1.41011 3.57199 0.700511 3.48886 -0.00766206C3.48008 -0.073126 3.47131 -0.13859 3.46254 -0.204054C3.48115 -0.211447 3.50348 -0.22032 3.52357 -0.223992Z" fill="#FFFA60"/>
</g>
</svg>
